<mxfile host="app.diagrams.net" modified="2022-10-10T08:55:16.289Z" agent="5.0 (Windows NT 10.0; Win64; x64) AppleWebKit/537.36 (KHTML, like Gecko) Chrome/106.0.0.0 Safari/537.36" etag="Gurv6rmhb17nLwenkY_y" version="20.4.0" type="github">
  <diagram id="6a731a19-8d31-9384-78a2-239565b7b9f0" name="Page-1">
    <mxGraphModel dx="1422" dy="762" grid="1" gridSize="10" guides="1" tooltips="1" connect="1" arrows="1" fold="1" page="1" pageScale="1" pageWidth="1169" pageHeight="827" background="none" math="0" shadow="0">
      <root>
        <mxCell id="0" />
        <mxCell id="1" parent="0" />
        <mxCell id="2" value="&lt;font style=&quot;font-size: 16px;&quot;&gt;开始&lt;/font&gt;" style="shape=mxgraph.flowchart.terminator;strokeWidth=2;gradientDirection=north;fontStyle=0;html=1;fillColor=#dae8fc;strokeColor=#6c8ebf;" parent="1" vertex="1">
          <mxGeometry x="810" y="40" width="110" height="50" as="geometry" />
        </mxCell>
        <mxCell id="sX7bemxgdabTvUzmlhU1-55" value="摄像头标定" style="rounded=0;whiteSpace=wrap;html=1;fontSize=16;fillColor=#dae8fc;strokeColor=#6c8ebf;" vertex="1" parent="1">
          <mxGeometry x="765" y="110" width="200" height="50" as="geometry" />
        </mxCell>
        <mxCell id="sX7bemxgdabTvUzmlhU1-76" style="edgeStyle=orthogonalEdgeStyle;orthogonalLoop=1;jettySize=auto;html=1;exitX=0.5;exitY=1;exitDx=0;exitDy=0;entryX=0.5;entryY=0;entryDx=0;entryDy=0;strokeWidth=1;fontSize=16;fillColor=#dae8fc;strokeColor=#6c8ebf;" edge="1" parent="1" source="sX7bemxgdabTvUzmlhU1-56" target="sX7bemxgdabTvUzmlhU1-57">
          <mxGeometry relative="1" as="geometry" />
        </mxCell>
        <mxCell id="sX7bemxgdabTvUzmlhU1-56" value="计算坐标变换矩阵" style="rounded=0;whiteSpace=wrap;html=1;fontSize=16;fillColor=#dae8fc;strokeColor=#6c8ebf;" vertex="1" parent="1">
          <mxGeometry x="765" y="180" width="200" height="50" as="geometry" />
        </mxCell>
        <mxCell id="sX7bemxgdabTvUzmlhU1-78" style="edgeStyle=orthogonalEdgeStyle;orthogonalLoop=1;jettySize=auto;html=1;exitX=0.5;exitY=1;exitDx=0;exitDy=0;entryX=0.5;entryY=0;entryDx=0;entryDy=0;strokeWidth=1;fontSize=16;fillColor=#dae8fc;strokeColor=#6c8ebf;" edge="1" parent="1" source="sX7bemxgdabTvUzmlhU1-57" target="sX7bemxgdabTvUzmlhU1-62">
          <mxGeometry relative="1" as="geometry" />
        </mxCell>
        <mxCell id="sX7bemxgdabTvUzmlhU1-57" value="绘制标尺线" style="rounded=0;whiteSpace=wrap;html=1;fontSize=16;fillColor=#dae8fc;strokeColor=#6c8ebf;" vertex="1" parent="1">
          <mxGeometry x="765" y="250" width="200" height="60" as="geometry" />
        </mxCell>
        <mxCell id="sX7bemxgdabTvUzmlhU1-79" style="edgeStyle=orthogonalEdgeStyle;orthogonalLoop=1;jettySize=auto;html=1;exitX=0.5;exitY=1;exitDx=0;exitDy=0;entryX=0.5;entryY=0;entryDx=0;entryDy=0;strokeWidth=1;fontSize=16;fillColor=#dae8fc;strokeColor=#6c8ebf;" edge="1" parent="1" source="sX7bemxgdabTvUzmlhU1-58" target="sX7bemxgdabTvUzmlhU1-59">
          <mxGeometry relative="1" as="geometry" />
        </mxCell>
        <mxCell id="sX7bemxgdabTvUzmlhU1-58" value="实时获取图像并转换为灰度图" style="rounded=0;whiteSpace=wrap;html=1;fontSize=16;fillColor=#dae8fc;strokeColor=#6c8ebf;" vertex="1" parent="1">
          <mxGeometry x="765" y="520" width="200" height="60" as="geometry" />
        </mxCell>
        <mxCell id="sX7bemxgdabTvUzmlhU1-80" style="edgeStyle=orthogonalEdgeStyle;orthogonalLoop=1;jettySize=auto;html=1;exitX=0.5;exitY=1;exitDx=0;exitDy=0;entryX=0.5;entryY=0;entryDx=0;entryDy=0;strokeWidth=1;fontSize=16;fillColor=#dae8fc;strokeColor=#6c8ebf;" edge="1" parent="1" source="sX7bemxgdabTvUzmlhU1-59" target="sX7bemxgdabTvUzmlhU1-60">
          <mxGeometry relative="1" as="geometry" />
        </mxCell>
        <mxCell id="sX7bemxgdabTvUzmlhU1-59" value="将灰度图转换为二值图" style="rounded=0;whiteSpace=wrap;html=1;fontSize=16;fillColor=#dae8fc;strokeColor=#6c8ebf;" vertex="1" parent="1">
          <mxGeometry x="765" y="610" width="200" height="60" as="geometry" />
        </mxCell>
        <mxCell id="sX7bemxgdabTvUzmlhU1-81" style="edgeStyle=orthogonalEdgeStyle;orthogonalLoop=1;jettySize=auto;html=1;exitX=0.5;exitY=1;exitDx=0;exitDy=0;entryX=0.571;entryY=-0.037;entryDx=0;entryDy=0;entryPerimeter=0;strokeWidth=1;fontSize=16;fillColor=#dae8fc;strokeColor=#6c8ebf;" edge="1" parent="1" source="sX7bemxgdabTvUzmlhU1-60" target="sX7bemxgdabTvUzmlhU1-61">
          <mxGeometry relative="1" as="geometry" />
        </mxCell>
        <mxCell id="sX7bemxgdabTvUzmlhU1-60" value="获取二值图上值为1的聚集点，选取首点计算车道线距离" style="rounded=0;whiteSpace=wrap;html=1;fontSize=16;fillColor=#dae8fc;strokeColor=#6c8ebf;" vertex="1" parent="1">
          <mxGeometry x="765" y="700" width="200" height="60" as="geometry" />
        </mxCell>
        <mxCell id="sX7bemxgdabTvUzmlhU1-61" value="&lt;font style=&quot;font-size: 16px;&quot;&gt;结束&lt;/font&gt;" style="shape=mxgraph.flowchart.terminator;strokeWidth=2;gradientDirection=north;fontStyle=0;html=1;fillColor=#dae8fc;strokeColor=#6c8ebf;" vertex="1" parent="1">
          <mxGeometry x="797.5" y="790" width="122.5" height="53.5" as="geometry" />
        </mxCell>
        <mxCell id="sX7bemxgdabTvUzmlhU1-70" style="edgeStyle=orthogonalEdgeStyle;orthogonalLoop=1;jettySize=auto;html=1;fontSize=16;fontStyle=1;strokeWidth=1;startArrow=none;fillColor=#dae8fc;strokeColor=#6c8ebf;" edge="1" parent="1" source="sX7bemxgdabTvUzmlhU1-71">
          <mxGeometry relative="1" as="geometry">
            <mxPoint x="760" y="130" as="targetPoint" />
            <Array as="points">
              <mxPoint x="690" y="130" />
            </Array>
          </mxGeometry>
        </mxCell>
        <mxCell id="sX7bemxgdabTvUzmlhU1-73" style="edgeStyle=orthogonalEdgeStyle;orthogonalLoop=1;jettySize=auto;html=1;exitX=0.5;exitY=1;exitDx=0;exitDy=0;entryX=0.5;entryY=0;entryDx=0;entryDy=0;strokeWidth=1;fontSize=16;startArrow=none;fillColor=#dae8fc;strokeColor=#6c8ebf;" edge="1" parent="1" source="sX7bemxgdabTvUzmlhU1-74" target="sX7bemxgdabTvUzmlhU1-58">
          <mxGeometry relative="1" as="geometry" />
        </mxCell>
        <mxCell id="sX7bemxgdabTvUzmlhU1-62" value="标尺线输出成功？" style="rhombus;whiteSpace=wrap;html=1;fontSize=16;fillColor=#dae8fc;strokeColor=#6c8ebf;" vertex="1" parent="1">
          <mxGeometry x="777.5" y="340" width="175" height="110" as="geometry" />
        </mxCell>
        <mxCell id="sX7bemxgdabTvUzmlhU1-66" value="" style="endArrow=classic;html=1;fontSize=16;curved=1;exitX=0.5;exitY=1;exitDx=0;exitDy=0;fillColor=#dae8fc;strokeColor=#6c8ebf;" edge="1" parent="1" source="sX7bemxgdabTvUzmlhU1-55" target="sX7bemxgdabTvUzmlhU1-56">
          <mxGeometry width="50" height="50" relative="1" as="geometry">
            <mxPoint x="580" y="170" as="sourcePoint" />
            <mxPoint x="570" y="260" as="targetPoint" />
          </mxGeometry>
        </mxCell>
        <mxCell id="sX7bemxgdabTvUzmlhU1-71" value="否" style="text;html=1;resizable=0;autosize=1;align=center;verticalAlign=middle;points=[];fillColor=#dae8fc;strokeColor=#6c8ebf;rounded=0;fontSize=16;" vertex="1" parent="1">
          <mxGeometry x="670" y="220" width="40" height="30" as="geometry" />
        </mxCell>
        <mxCell id="sX7bemxgdabTvUzmlhU1-72" value="" style="edgeStyle=orthogonalEdgeStyle;orthogonalLoop=1;jettySize=auto;html=1;fontSize=16;fontStyle=1;strokeWidth=1;endArrow=none;fillColor=#dae8fc;strokeColor=#6c8ebf;" edge="1" parent="1" source="sX7bemxgdabTvUzmlhU1-62" target="sX7bemxgdabTvUzmlhU1-71">
          <mxGeometry relative="1" as="geometry">
            <mxPoint x="760" y="130" as="targetPoint" />
            <mxPoint x="775" y="395" as="sourcePoint" />
            <Array as="points">
              <mxPoint x="690" y="395" />
            </Array>
          </mxGeometry>
        </mxCell>
        <mxCell id="sX7bemxgdabTvUzmlhU1-74" value="是" style="text;html=1;resizable=0;autosize=1;align=center;verticalAlign=middle;points=[];fillColor=#dae8fc;strokeColor=#6c8ebf;rounded=0;fontSize=16;" vertex="1" parent="1">
          <mxGeometry x="845" y="460" width="40" height="30" as="geometry" />
        </mxCell>
        <mxCell id="sX7bemxgdabTvUzmlhU1-75" value="" style="edgeStyle=orthogonalEdgeStyle;orthogonalLoop=1;jettySize=auto;html=1;exitX=0.5;exitY=1;exitDx=0;exitDy=0;entryX=0.5;entryY=0;entryDx=0;entryDy=0;strokeWidth=1;fontSize=16;endArrow=none;fillColor=#dae8fc;strokeColor=#6c8ebf;" edge="1" parent="1" source="sX7bemxgdabTvUzmlhU1-62" target="sX7bemxgdabTvUzmlhU1-74">
          <mxGeometry relative="1" as="geometry">
            <mxPoint x="865" y="460" as="sourcePoint" />
            <mxPoint x="865" y="550" as="targetPoint" />
          </mxGeometry>
        </mxCell>
      </root>
    </mxGraphModel>
  </diagram>
</mxfile>
